<mxfile host="app.diagrams.net" modified="2024-01-24T20:00:11.041Z" agent="Mozilla/5.0 (Windows NT 10.0; Win64; x64) AppleWebKit/537.36 (KHTML, like Gecko) Chrome/120.0.0.0 Safari/537.36" etag="0j_l-K0H_D8Aq6JJ0I1u" version="22.1.22" type="device">
  <diagram id="dijq7EySqOm7LpBwnqDr" name="Page-1">
    <mxGraphModel dx="882" dy="578" grid="1" gridSize="10" guides="1" tooltips="1" connect="1" arrows="1" fold="1" page="1" pageScale="1" pageWidth="850" pageHeight="1100" math="0" shadow="0">
      <root>
        <mxCell id="0" />
        <mxCell id="1" parent="0" />
        <mxCell id="yubhTosG7002OV7giInH-9" style="edgeStyle=orthogonalEdgeStyle;rounded=0;orthogonalLoop=1;jettySize=auto;html=1;exitX=0.5;exitY=1;exitDx=0;exitDy=0;entryX=0.5;entryY=0;entryDx=0;entryDy=0;" edge="1" parent="1" source="yubhTosG7002OV7giInH-1" target="yubhTosG7002OV7giInH-3">
          <mxGeometry relative="1" as="geometry" />
        </mxCell>
        <mxCell id="yubhTosG7002OV7giInH-1" value="User A" style="rounded=1;whiteSpace=wrap;html=1;" vertex="1" parent="1">
          <mxGeometry x="280" y="40" width="120" height="60" as="geometry" />
        </mxCell>
        <mxCell id="yubhTosG7002OV7giInH-11" style="edgeStyle=orthogonalEdgeStyle;rounded=0;orthogonalLoop=1;jettySize=auto;html=1;exitX=1;exitY=0.5;exitDx=0;exitDy=0;entryX=0;entryY=0.5;entryDx=0;entryDy=0;" edge="1" parent="1" source="yubhTosG7002OV7giInH-2" target="yubhTosG7002OV7giInH-3">
          <mxGeometry relative="1" as="geometry" />
        </mxCell>
        <mxCell id="yubhTosG7002OV7giInH-2" value="ID generator" style="rounded=1;whiteSpace=wrap;html=1;" vertex="1" parent="1">
          <mxGeometry x="80" y="160" width="120" height="60" as="geometry" />
        </mxCell>
        <mxCell id="yubhTosG7002OV7giInH-10" style="edgeStyle=orthogonalEdgeStyle;rounded=0;orthogonalLoop=1;jettySize=auto;html=1;exitX=0;exitY=0.5;exitDx=0;exitDy=0;entryX=1;entryY=0.5;entryDx=0;entryDy=0;" edge="1" parent="1" source="yubhTosG7002OV7giInH-3" target="yubhTosG7002OV7giInH-2">
          <mxGeometry relative="1" as="geometry" />
        </mxCell>
        <mxCell id="yubhTosG7002OV7giInH-12" style="edgeStyle=orthogonalEdgeStyle;rounded=0;orthogonalLoop=1;jettySize=auto;html=1;exitX=0.5;exitY=1;exitDx=0;exitDy=0;entryX=0;entryY=0.5;entryDx=0;entryDy=0;" edge="1" parent="1" source="yubhTosG7002OV7giInH-3" target="yubhTosG7002OV7giInH-6">
          <mxGeometry relative="1" as="geometry" />
        </mxCell>
        <mxCell id="yubhTosG7002OV7giInH-3" value="Chat server 1" style="rounded=1;whiteSpace=wrap;html=1;" vertex="1" parent="1">
          <mxGeometry x="280" y="160" width="120" height="60" as="geometry" />
        </mxCell>
        <mxCell id="yubhTosG7002OV7giInH-4" value="User B" style="rounded=1;whiteSpace=wrap;html=1;" vertex="1" parent="1">
          <mxGeometry x="600" y="40" width="120" height="60" as="geometry" />
        </mxCell>
        <mxCell id="yubhTosG7002OV7giInH-14" style="edgeStyle=orthogonalEdgeStyle;rounded=0;orthogonalLoop=1;jettySize=auto;html=1;exitX=0.5;exitY=0;exitDx=0;exitDy=0;" edge="1" parent="1" source="yubhTosG7002OV7giInH-5" target="yubhTosG7002OV7giInH-4">
          <mxGeometry relative="1" as="geometry" />
        </mxCell>
        <mxCell id="yubhTosG7002OV7giInH-5" value="Chat server 2" style="rounded=1;whiteSpace=wrap;html=1;" vertex="1" parent="1">
          <mxGeometry x="600" y="160" width="120" height="60" as="geometry" />
        </mxCell>
        <mxCell id="yubhTosG7002OV7giInH-13" style="edgeStyle=orthogonalEdgeStyle;rounded=0;orthogonalLoop=1;jettySize=auto;html=1;exitX=0.5;exitY=1;exitDx=0;exitDy=0;entryX=0.5;entryY=0;entryDx=0;entryDy=0;" edge="1" parent="1" source="yubhTosG7002OV7giInH-6" target="yubhTosG7002OV7giInH-7">
          <mxGeometry relative="1" as="geometry" />
        </mxCell>
        <mxCell id="yubhTosG7002OV7giInH-16" style="edgeStyle=orthogonalEdgeStyle;rounded=0;orthogonalLoop=1;jettySize=auto;html=1;exitX=1;exitY=0.25;exitDx=0;exitDy=0;entryX=0.25;entryY=1;entryDx=0;entryDy=0;" edge="1" parent="1" source="yubhTosG7002OV7giInH-6" target="yubhTosG7002OV7giInH-5">
          <mxGeometry relative="1" as="geometry" />
        </mxCell>
        <mxCell id="yubhTosG7002OV7giInH-17" style="edgeStyle=orthogonalEdgeStyle;rounded=0;orthogonalLoop=1;jettySize=auto;html=1;exitX=1;exitY=0.75;exitDx=0;exitDy=0;entryX=0.25;entryY=0;entryDx=0;entryDy=0;" edge="1" parent="1" source="yubhTosG7002OV7giInH-6" target="yubhTosG7002OV7giInH-8">
          <mxGeometry relative="1" as="geometry" />
        </mxCell>
        <mxCell id="yubhTosG7002OV7giInH-6" value="User B message queue" style="rounded=1;whiteSpace=wrap;html=1;" vertex="1" parent="1">
          <mxGeometry x="440" y="280" width="120" height="60" as="geometry" />
        </mxCell>
        <mxCell id="yubhTosG7002OV7giInH-7" value="Key-value store" style="rounded=1;whiteSpace=wrap;html=1;" vertex="1" parent="1">
          <mxGeometry x="440" y="400" width="120" height="60" as="geometry" />
        </mxCell>
        <mxCell id="yubhTosG7002OV7giInH-18" style="edgeStyle=orthogonalEdgeStyle;rounded=0;orthogonalLoop=1;jettySize=auto;html=1;exitX=0.75;exitY=0;exitDx=0;exitDy=0;entryX=0.75;entryY=1;entryDx=0;entryDy=0;" edge="1" parent="1" source="yubhTosG7002OV7giInH-8" target="yubhTosG7002OV7giInH-5">
          <mxGeometry relative="1" as="geometry" />
        </mxCell>
        <mxCell id="yubhTosG7002OV7giInH-8" value="Push notification servers" style="rounded=1;whiteSpace=wrap;html=1;" vertex="1" parent="1">
          <mxGeometry x="600" y="400" width="120" height="60" as="geometry" />
        </mxCell>
      </root>
    </mxGraphModel>
  </diagram>
</mxfile>
